<svg width="1280" height="203" viewBox="0 0 1280 203" fill="none" xmlns="http://www.w3.org/2000/svg">
<g clip-path="url(#clip0_220_208)">
<!-- <path d="M-17 34.8667L17.865 28.0767C52.8829 21.1789 122.613 7.59893 192.496 1.99449C262.379 -3.60996 332.109 -1.02328 401.992 -5.33439C471.875 -9.6455 541.605 -20.8544 611.793 -19.8844C681.829 -19.0222 752.171 -6.08886 822.207 0.701141C892.395 7.59892 962.125 8.24558 1032.01 13.6345C1101.89 19.0234 1171.62 29.1545 1241.5 24.0889C1311.39 19.0234 1381.12 -1.0233 1416.14 -11.1544L1451 -21.1777V204.078H1416.14C1381.12 204.078 1311.39 204.078 1241.5 204.078C1171.62 204.078 1101.89 204.078 1032.01 204.078C962.125 204.078 892.395 204.078 822.207 204.078C752.171 204.078 681.829 204.078 611.793 204.078C541.605 204.078 471.875 204.078 401.992 204.078C332.109 204.078 262.379 204.078 192.496 204.078C122.613 204.078 52.8829 204.078 17.865 204.078H-17V34.8667Z" fill="white"/> -->
<path d="M-17 76.9L17.865 65.26C52.8829 53.5122 122.613 30.2322 192.496 20.8555C262.379 11.4789 332.109 16.2211 401.992 25.1667C471.875 34.1122 541.605 47.4767 611.793 44.5667C681.829 41.6567 752.171 22.6878 822.207 23.55C892.395 24.4122 962.125 45.3211 1032.01 56.0989C1101.89 66.8767 1171.62 67.5233 1241.5 62.0267C1311.39 56.4222 1381.12 44.5667 1416.14 38.6389L1451 32.7111V204.078H1416.14C1381.12 204.078 1311.39 204.078 1241.5 204.078C1171.62 204.078 1101.89 204.078 1032.01 204.078C962.125 204.078 892.395 204.078 822.207 204.078C752.171 204.078 681.829 204.078 611.793 204.078C541.605 204.078 471.875 204.078 401.992 204.078C332.109 204.078 262.379 204.078 192.496 204.078C122.613 204.078 52.8829 204.078 17.865 204.078H-17V76.9Z" fill="#F2F5F8"/>
<path d="M-17 86.6L17.865 86.8156C52.8829 86.9234 122.613 87.3545 192.496 90.3722C262.379 93.39 332.109 99.21 401.992 102.551C471.875 106 541.605 107.078 611.793 100.934C681.829 94.8989 752.171 81.5345 822.207 81.9656C892.395 82.2889 962.125 96.3 1032.01 96.0845C1101.89 95.9767 1171.62 81.5345 1241.5 72.5889C1311.39 63.6434 1381.12 59.9789 1416.14 58.2545L1451 56.4222V204.078H1416.14C1381.12 204.078 1311.39 204.078 1241.5 204.078C1171.62 204.078 1101.89 204.078 1032.01 204.078C962.125 204.078 892.395 204.078 822.207 204.078C752.171 204.078 681.829 204.078 611.793 204.078C541.605 204.078 471.875 204.078 401.992 204.078C332.109 204.078 262.379 204.078 192.496 204.078C122.613 204.078 52.8829 204.078 17.865 204.078H-17V86.6Z" fill="#D9E2EC"/>
<path d="M-17 144.8L17.865 139.95C52.8829 135.1 122.613 125.4 192.496 125.723C262.379 126.154 332.109 136.501 401.992 136.717C471.875 136.932 541.605 126.801 611.793 124.322C681.829 121.843 752.171 126.801 822.207 128.094C892.395 129.388 962.125 126.801 1032.01 128.418C1101.89 130.034 1171.62 135.854 1241.5 138.549C1311.39 141.243 1381.12 140.812 1416.14 140.704L1451 140.489V204.078H1416.14C1381.12 204.078 1311.39 204.078 1241.5 204.078C1171.62 204.078 1101.89 204.078 1032.01 204.078C962.125 204.078 892.395 204.078 822.207 204.078C752.171 204.078 681.829 204.078 611.793 204.078C541.605 204.078 471.875 204.078 401.992 204.078C332.109 204.078 262.379 204.078 192.496 204.078C122.613 204.078 52.8829 204.078 17.865 204.078H-17V144.8Z" fill="#1F2D3D"/>
<path d="M-17 153.422L17.865 152.129C52.8829 150.943 122.613 148.357 192.496 152.021C262.379 155.578 332.109 165.278 401.992 162.583C471.875 159.889 541.605 144.8 611.793 138.333C681.829 131.867 752.171 134.022 822.207 134.777C892.395 135.423 962.125 134.777 1032.01 138.657C1101.89 142.644 1171.62 151.267 1241.5 153.207C1311.39 155.254 1381.12 150.512 1416.14 148.249L1451 145.878V204.078H1416.14C1381.12 204.078 1311.39 204.078 1241.5 204.078C1171.62 204.078 1101.89 204.078 1032.01 204.078C962.125 204.078 892.395 204.078 822.207 204.078C752.171 204.078 681.829 204.078 611.793 204.078C541.605 204.078 471.875 204.078 401.992 204.078C332.109 204.078 262.379 204.078 192.496 204.078C122.613 204.078 52.8829 204.078 17.865 204.078H-17V153.422Z" fill="#151B29"/>
</g>
<defs>
<clipPath id="clip0_220_208">
<rect width="1468" height="203" fill="white" transform="translate(-17)"/>
</clipPath>
</defs>
</svg>
