<svg width="1468" height="726" viewBox="0 0 1468 726" fill="none" xmlns="http://www.w3.org/2000/svg">
<path fill-rule="evenodd" clip-rule="evenodd" d="M34.865 30.3933L0 30.1777V147.656H34.865H209.496H418.992H628.793H839.207H1049.01H1258.5H1433.14H1468V0L1433.14 1.83228C1398.12 3.55664 1328.39 7.22107 1258.5 16.1666C1239.1 18.6508 1219.7 21.5587 1200.32 24.4658C1149.88 32.0278 1099.49 39.5844 1049.01 39.6622C1013.43 39.772 977.896 36.1947 942.318 32.6133C908.01 29.1595 873.664 25.702 839.207 25.5433C793.431 25.2615 747.525 30.8732 701.658 36.48C677.35 39.4514 653.053 42.4215 628.793 44.5122C558.605 50.6555 488.875 49.5778 418.992 46.1289C386.182 44.5602 353.406 42.4452 320.632 40.3303C283.599 37.9406 246.569 35.5509 209.496 33.95C139.613 30.9323 69.8829 30.5011 34.865 30.3933ZM1468 148H0V726H1468V148Z" fill="#D9E2EC"/>
</svg>
