<svg width="1468" height="766" viewBox="0 0 1468 766" fill="none" xmlns="http://www.w3.org/2000/svg">
<path fill-rule="evenodd" clip-rule="evenodd" d="M34.865 49.5221L0 61.1621V188V188.34V766H1468V188.34V188V16.9731L1433.14 22.901L1432.27 23.0467C1396.98 29.021 1327.82 40.7299 1258.5 46.2887C1188.62 51.7854 1118.89 51.1388 1049.01 40.361C1025.57 36.7465 1002.15 31.9925 978.728 27.2374C932.304 17.8136 885.857 8.38513 839.207 7.81201C800.499 7.33544 761.698 12.9165 722.907 18.4961C691.511 23.012 660.122 27.527 628.793 28.8287C573.604 31.1169 518.697 23.343 463.778 15.567C448.852 13.4537 433.925 11.3403 418.992 9.42871C349.109 0.483149 279.379 -4.25904 209.496 5.11767C139.613 14.4943 69.8829 37.7743 34.865 49.5221Z" fill="#F2F5F8"/>
</svg>
