<svg width="1468" height="658" viewBox="0 0 1468 658" fill="none" xmlns="http://www.w3.org/2000/svg">
<path fill-rule="evenodd" clip-rule="evenodd" d="M34.865 16.3118L0 21.1618V79.9999V80.4396V658H1468V80.4396V79.9999V16.8508L1433.14 17.0663C1430.99 17.0729 1428.71 17.0808 1426.32 17.0889C1389.57 17.2151 1324.11 17.4401 1258.5 14.9107C1228.69 13.7612 1198.9 12.0427 1169.12 10.3244C1129.09 8.0152 1089.08 5.70648 1049.01 4.7796C1012.68 3.93915 976.395 4.23456 940.063 4.53034C906.505 4.80365 872.909 5.07721 839.207 4.45624C816.112 4.02972 792.983 3.20477 769.844 2.37946C722.812 0.701844 675.734 -0.977477 628.793 0.684022C598.889 1.74017 569.068 4.18536 539.283 6.62763C499.159 9.91754 459.101 13.2022 418.992 13.0786C383.675 12.9697 348.397 10.2733 313.119 7.57672C278.591 4.93756 244.062 2.2984 209.496 2.08514C139.906 1.76312 70.4673 11.3807 35.3071 16.2506L34.865 16.3118Z" fill="#1F2D3D"/>
</svg>
