<svg width="1468" height="648" viewBox="0 0 1468 648" fill="none" xmlns="http://www.w3.org/2000/svg">
<path fill-rule="evenodd" clip-rule="evenodd" d="M34.8652 18.2415L0 19.53V70V648H1468V70V12.0133L1433.14 14.3757L1429.62 14.6027C1393.59 16.9303 1326.12 21.2894 1258.5 19.3153C1217.25 18.1744 1176.06 14.7139 1134.85 11.2524C1106.25 8.84961 1077.64 6.44653 1049.01 4.8186C994.635 1.81079 940.354 1.53333 885.878 1.25488C870.339 1.17542 854.784 1.09583 839.207 0.952882C829.438 0.848023 819.663 0.716065 809.883 0.583985C749.553 -0.230834 689.06 -1.04785 628.793 4.49646C599.899 7.1488 571.083 11.257 542.301 15.3601C501.167 21.2242 460.106 27.0781 418.992 28.6576C372.284 30.4519 325.644 26.7296 278.98 23.0054C255.828 21.1576 232.67 19.3093 209.496 18.1342C141.974 14.6063 74.5947 16.8933 38.5317 18.1172L34.8652 18.2415Z" fill="#151B29"/>
</svg>
