<?xml version="1.0" standalone="no"?>
<!DOCTYPE svg PUBLIC "-//W3C//DTD SVG 20010904//EN"
 "http://www.w3.org/TR/2001/REC-SVG-20010904/DTD/svg10.dtd">
<svg version="1.0" xmlns="http://www.w3.org/2000/svg"
 width="268.000000pt" height="268.000000pt" viewBox="0 0 268.000000 268.000000"
 preserveAspectRatio="xMidYMid meet">
<metadata>
Created by potrace 1.14, written by Peter Selinger 2001-2017
</metadata>
<g transform="translate(0.000000,268.000000) scale(0.100000,-0.100000)"
fill="#DB594C" stroke="none">
<path d="M1478 2509 c-547 -53 -1269 -410 -1432 -708 -40 -75 -44 -127 -13
-195 73 -158 242 -268 462 -300 l80 -12 -65 -34 c-81 -43 -207 -166 -241 -235
-21 -44 -24 -63 -23 -155 0 -117 21 -189 85 -296 74 -125 233 -246 413 -315
302 -116 726 -126 1036 -23 288 96 474 283 524 526 19 94 20 110 2 176 -9 35
-10 52 -2 52 30 0 200 95 249 140 81 74 112 142 112 245 0 71 -4 89 -32 146
-91 183 -332 348 -636 434 -47 13 -58 20 -53 33 42 129 47 160 43 252 -7 141
-36 192 -131 236 -50 22 -186 45 -256 43 -19 -1 -74 -5 -122 -10z m284 -50
c104 -22 168 -75 168 -140 0 -27 -38 -108 -69 -148 l-19 -24 -27 22 c-156 122
-670 35 -1097 -186 -241 -124 -428 -290 -444 -394 -6 -34 -10 -39 -33 -39 -46
0 -120 30 -151 62 -25 24 -30 38 -30 76 1 257 739 678 1344 767 115 16 289 18
358 4z m-22 -270 c19 -6 48 -21 64 -32 l30 -21 -65 -58 c-185 -169 -549 -357
-876 -452 -179 -52 -322 -77 -477 -83 l-138 -6 7 34 c26 124 217 286 501 425
200 98 444 173 679 208 54 8 239 -2 275 -15z m295 -293 c203 -68 354 -156 463
-269 83 -87 122 -169 122 -257 -1 -84 -24 -136 -93 -204 -246 -240 -906 -255
-1358 -31 -116 57 -279 171 -279 194 0 4 23 13 51 19 l51 12 59 -54 c122 -110
333 -199 574 -241 108 -19 343 -22 435 -6 261 47 430 176 430 329 0 172 -209
355 -517 452 l-103 33 21 28 c11 16 25 29 31 29 6 0 57 -15 113 -34z m-94 -62
c82 -24 208 -78 278 -119 84 -49 191 -152 221 -212 33 -66 38 -148 13 -198
l-20 -38 5 56 c8 94 -17 149 -112 242 -62 62 -102 92 -171 127 -87 45 -196 86
-282 108 -39 10 -42 12 -30 30 14 24 28 25 98 4z m109 -111 c178 -77 308 -180
351 -279 53 -118 9 -233 -111 -294 -267 -135 -731 -108 -1060 61 -90 46 -210
131 -210 149 0 4 55 27 123 50 235 80 489 219 617 337 l54 50 86 -23 c47 -12
114 -35 150 -51z m-1172 -446 l43 -44 -87 -22 c-179 -45 -317 -115 -409 -206
-63 -64 -94 -125 -102 -202 -6 -57 -7 -58 -19 -28 -53 126 -3 268 132 378 71
58 244 145 311 157 81 13 87 12 131 -33z m128 -104 c139 -93 344 -173 556
-214 91 -19 149 -23 298 -23 102 -1 205 1 229 4 43 5 46 3 72 -35 41 -58 55
-131 40 -200 -11 -47 -20 -62 -69 -106 -69 -61 -240 -148 -364 -183 -256 -73
-657 -76 -918 -6 -244 66 -484 213 -503 310 -30 150 58 284 253 384 88 45 171
75 275 100 33 8 61 15 61 15 1 1 32 -20 70 -46z m1253 -234 c18 -53 13 -139
-12 -193 l-22 -48 0 58 c0 61 -15 109 -48 157 -25 37 -14 47 60 56 6 0 16 -13
22 -30z"/>
</g>
</svg>
