<svg width="64" height="53" viewBox="0 0 64 53" fill="none" xmlns="http://www.w3.org/2000/svg">
<path fill-rule="evenodd" clip-rule="evenodd" d="M61.5001 0C62.8808 0 64.0001 1.11929 64.0001 2.5V49.5C64.0001 50.8807 62.8808 52 61.5001 52C60.1193 52 59.0001 50.8807 59.0001 49.5V28.95C58.8385 28.9828 58.6713 29 58.5001 29H42.5001H37.0517L45.7298 49.0392C46.2784 50.3062 45.6836 51.748 44.4011 52.2594C43.1186 52.7709 41.6342 52.1585 41.0855 50.8914L31.6053 29H14.5001C14.4646 29 14.4293 28.9993 14.3943 28.9978L4.99353 50.7059C4.44485 51.9729 2.9604 52.5854 1.67792 52.0739C0.39544 51.5624 -0.199421 50.1207 0.349261 48.8536L20.5923 2.10856C21.141 0.84155 22.6254 0.229071 23.9079 0.740551C24.2962 0.895418 24.6215 1.13557 24.8711 1.43033C25.1283 1.66599 25.3406 1.95687 25.4867 2.29412L34.8865 24H35.5001H42.5001H58.5001C58.6713 24 58.8385 24.0172 59.0001 24.05V2.5C59.0001 1.11929 60.1193 0 61.5001 0ZM29.4401 24L22.9993 9.12705L16.5586 24H29.4401Z" fill="black"/>
</svg>
